<svg width="1041" height="227" viewBox="0 0 1041 227" fill="none" xmlns="http://www.w3.org/2000/svg">
<path d="M286.186 -260.246C286.186 -262.663 286.611 -265.043 287.777 -267.161C296.108 -282.298 341.415 -345 520.309 -345C699.204 -345 744.511 -282.298 752.842 -267.161C754.008 -265.043 754.433 -262.663 754.433 -260.246V-16.4943C754.433 -5.44856 745.479 3.50573 734.433 3.50573H306.186C295.14 3.50573 286.186 -5.44857 286.186 -16.4943V-260.246Z" fill="url(#paint0_radial_30_3798)"/>
<path d="M286.186 -260.246C286.186 -262.663 286.611 -265.043 287.777 -267.161C296.108 -282.298 341.415 -345 520.309 -345C699.204 -345 744.511 -282.298 752.842 -267.161C754.008 -265.043 754.433 -262.663 754.433 -260.246V-16.4943C754.433 -5.44856 745.479 3.50573 734.433 3.50573H306.186C295.14 3.50573 286.186 -5.44857 286.186 -16.4943V-260.246Z" fill="url(#paint1_radial_30_3798)"/>
<ellipse cx="520.308" cy="-54.9592" rx="505.308" ry="207.2" fill="url(#paint2_radial_30_3798)"/>
<g filter="url(#filter0_f_30_3798)">
<ellipse cx="520.308" cy="-51.7715" rx="505.308" ry="210.387" fill="url(#paint3_linear_30_3798)" fill-opacity="0.25"/>
</g>
<ellipse cx="520.308" cy="-46.9899" rx="505.308" ry="199.23" fill="url(#paint4_radial_30_3798)"/>
<g filter="url(#filter1_i_30_3798)">
<path d="M217.942 27.3437C216.918 19.5246 222.31 12.3405 229.985 11.2974L270.008 5.85793C277.683 4.81488 284.734 10.3079 285.758 18.1269L292.982 73.2971C294.006 81.1161 288.614 88.3002 280.939 89.3433L240.916 94.7828C233.241 95.8258 226.19 90.3328 225.166 82.5138L217.942 27.3437Z" fill="#E8CCB5"/>
<path d="M825.719 27.3437C826.742 19.5246 821.351 12.3405 813.676 11.2974L773.653 5.85793C765.978 4.81488 758.926 10.3079 757.903 18.1269L750.679 73.2971C749.655 81.1161 755.047 88.3002 762.721 89.3433L802.745 94.7828C810.419 95.8258 817.471 90.3328 818.495 82.5138L825.719 27.3437Z" fill="#E8CCB5"/>
<path d="M241.21 -89.8078C241.21 -97.6961 247.487 -104.091 255.229 -104.091H791.628C799.371 -104.091 805.648 -97.6961 805.648 -89.8078V169.868C805.648 201.421 776.471 227 745.5 227H301C270.029 227 241.21 201.421 241.21 169.868V-89.8078Z" fill="#E8CCB5"/>
</g>
<path fill-rule="evenodd" clip-rule="evenodd" d="M519.285 -14.0479C490.318 -14.6169 470.788 -15.0005 414.198 -44.3544C344.07 -80.7312 289.34 -64.2985 270.243 -51.331C263.877 -47.0084 232.06 -23.7922 243.8 54.7026C255.384 110.747 290.704 131.339 338.749 142.217C373.936 143.566 397.874 136.978 426.509 115.923C443.917 103.123 454.205 90.3569 463.279 79.0965C478.011 60.8158 489.544 46.504 523.153 42.4587C556.818 46.0166 568.55 60.1604 583.536 78.2266C592.766 89.3545 603.231 101.97 620.816 114.517C649.741 135.156 673.769 141.397 708.934 139.538C756.822 127.966 791.852 106.865 802.653 50.6584C813.297 -27.9984 781.159 -50.7518 774.734 -54.9817C755.458 -67.6715 700.504 -83.3105 630.89 -45.9223C574.716 -15.7523 555.193 -15.086 526.237 -14.0978C525.096 -14.0589 523.941 -14.0195 522.768 -13.9777C521.59 -14.0026 520.43 -14.0254 519.285 -14.0479Z" fill="black"/>
<g filter="url(#filter2_i_30_3798)">
<path d="M245.219 -128.05C242.884 -127.586 241.209 -125.536 241.209 -123.155L241.209 3.36845C249.081 3.36845 255.463 -5.89621 255.463 -17.3247L255.463 -105.634C259.656 -102.113 264.524 -100.098 269.716 -100.098H463.558C476.561 -74.9667 497.262 -58.7111 520.578 -58.7111H777.14C786.677 -58.7111 787.201 -67.2444 791.394 -70.7657V-17.3247C791.394 -5.89621 797.775 3.36845 805.647 3.36845V-129.308C805.647 -131.733 803.91 -133.809 801.521 -134.225C718.789 -148.638 631.119 -156.464 539.937 -156.464C436.482 -156.464 337.548 -146.39 245.219 -128.05Z" fill="url(#paint5_radial_30_3798)"/>
</g>
<path fill-rule="evenodd" clip-rule="evenodd" d="M625.277 -42.9415C573.375 -15.7065 554.207 -15.0524 526.237 -14.0978C525.096 -14.0589 523.941 -14.0195 522.768 -13.9777C521.593 -14.0025 520.436 -14.0253 519.293 -14.0477L519.285 -14.0479C490.318 -14.6169 470.788 -15.0005 414.198 -44.3544C344.07 -80.7312 289.34 -64.2985 270.243 -51.331C263.877 -47.0084 232.06 -23.7922 243.8 54.7026C255.384 110.747 290.704 131.339 338.749 142.217C373.936 143.566 397.874 136.978 426.509 115.923C443.917 103.123 454.205 90.3569 463.279 79.0965C478.011 60.8158 489.544 46.504 523.153 42.4587C556.818 46.0166 568.55 60.1604 583.536 78.2266C592.766 89.3545 603.231 101.97 620.816 114.517C649.741 135.156 673.769 141.397 708.934 139.538C756.822 127.966 791.852 106.865 802.653 50.6584C809.909 -2.9635 797.283 -30.6047 786.475 -44.1081L625.277 -42.9415Z" fill="url(#paint6_radial_30_3798)"/>
<ellipse cx="372.317" cy="36.2319" rx="63.0872" ry="61.417" fill="#F5F3EC"/>
<ellipse cx="675.403" cy="36.2319" rx="63.0872" ry="61.417" fill="#F5F3EC"/>
<g filter="url(#filter3_d_30_3798)">
<path fill-rule="evenodd" clip-rule="evenodd" d="M492.295 172.23C490.718 171.579 488.921 172.354 488.252 173.991C487.572 175.654 488.315 177.576 489.91 178.284L491.141 175.273C489.91 178.284 489.913 178.285 489.915 178.286L489.921 178.289L489.931 178.293L489.955 178.303C489.971 178.31 489.988 178.317 490.006 178.325C490.043 178.34 490.086 178.357 490.134 178.375C490.229 178.411 490.348 178.454 490.494 178.501C490.785 178.596 491.187 178.713 491.731 178.845C492.816 179.107 494.491 179.432 497.006 179.749C502.032 180.384 510.506 181 524.5 181C538.494 181 546.968 180.384 551.994 179.749C554.509 179.432 556.184 179.107 557.269 178.845C557.813 178.713 558.215 178.596 558.506 178.501C558.652 178.454 558.771 178.411 558.866 178.375C558.914 178.357 558.957 178.34 558.994 178.325C559.012 178.317 559.029 178.31 559.045 178.303L559.069 178.293L559.079 178.289L559.085 178.286C559.087 178.285 559.09 178.284 557.859 175.273L559.09 178.284C560.685 177.576 561.428 175.654 560.748 173.991C560.079 172.354 558.282 171.579 556.705 172.23C556.692 172.235 556.667 172.243 556.629 172.256C556.509 172.295 556.262 172.37 555.852 172.469C555.032 172.667 553.584 172.956 551.239 173.252C546.543 173.844 538.337 174.455 524.5 174.455C510.663 174.455 502.457 173.844 497.761 173.252C495.416 172.956 493.968 172.667 493.148 172.469C492.738 172.37 492.491 172.295 492.371 172.256C492.333 172.243 492.308 172.235 492.295 172.23Z" fill="#E0C3AC"/>
</g>
<g filter="url(#filter4_d_30_3798)">
<path fill-rule="evenodd" clip-rule="evenodd" d="M498.348 174L499.819 204.91C499.92 207.043 501.679 208.72 503.814 208.72H518.198C520.328 208.72 522.085 207.05 522.192 204.922L523.759 174H498.348ZM526.241 174L527.808 204.921C527.916 207.049 529.672 208.719 531.803 208.719H546.64C548.794 208.719 550.561 207.014 550.638 204.862L551.739 174H526.241Z" fill="#F5F3EC"/>
</g>
<g filter="url(#filter5_d_30_3798)">
<path d="M468 167C468 167 477.363 175.051 524.5 175.051C571.637 175.051 581 167 581 167" stroke="#69625C" stroke-linecap="round"/>
<path d="M484.016 171.442C484.016 171.442 501.251 174.515 524.901 174.515C548.55 174.515 564.984 171.442 564.984 171.442" stroke="#69625C" stroke-linecap="round"/>
<path d="M468 167C468 167 477.363 175.051 524.5 175.051C571.637 175.051 581 167 581 167" stroke="#69625C" stroke-linecap="round"/>
</g>
<defs>
<filter id="filter0_f_30_3798" x="0" y="-277.159" width="1040.62" height="450.774" filterUnits="userSpaceOnUse" color-interpolation-filters="sRGB">
<feFlood flood-opacity="0" result="BackgroundImageFix"/>
<feBlend mode="normal" in="SourceGraphic" in2="BackgroundImageFix" result="shape"/>
<feGaussianBlur stdDeviation="7.5" result="effect1_foregroundBlur_30_3798"/>
</filter>
<filter id="filter1_i_30_3798" x="217.817" y="-105.091" width="608.026" height="332.091" filterUnits="userSpaceOnUse" color-interpolation-filters="sRGB">
<feFlood flood-opacity="0" result="BackgroundImageFix"/>
<feBlend mode="normal" in="SourceGraphic" in2="BackgroundImageFix" result="shape"/>
<feColorMatrix in="SourceAlpha" type="matrix" values="0 0 0 0 0 0 0 0 0 0 0 0 0 0 0 0 0 0 127 0" result="hardAlpha"/>
<feOffset dy="-1"/>
<feGaussianBlur stdDeviation="2"/>
<feComposite in2="hardAlpha" operator="arithmetic" k2="-1" k3="1"/>
<feColorMatrix type="matrix" values="0 0 0 0 0 0 0 0 0 0 0 0 0 0 0 0 0 0 0.1 0"/>
<feBlend mode="normal" in2="shape" result="effect1_innerShadow_30_3798"/>
</filter>
<filter id="filter2_i_30_3798" x="241.209" y="-156.464" width="564.438" height="160.833" filterUnits="userSpaceOnUse" color-interpolation-filters="sRGB">
<feFlood flood-opacity="0" result="BackgroundImageFix"/>
<feBlend mode="normal" in="SourceGraphic" in2="BackgroundImageFix" result="shape"/>
<feColorMatrix in="SourceAlpha" type="matrix" values="0 0 0 0 0 0 0 0 0 0 0 0 0 0 0 0 0 0 127 0" result="hardAlpha"/>
<feOffset dy="1"/>
<feGaussianBlur stdDeviation="2.5"/>
<feComposite in2="hardAlpha" operator="arithmetic" k2="-1" k3="1"/>
<feColorMatrix type="matrix" values="0 0 0 0 0 0 0 0 0 0 0 0 0 0 0 0 0 0 0.3 0"/>
<feBlend mode="normal" in2="shape" result="effect1_innerShadow_30_3798"/>
</filter>
<filter id="filter3_d_30_3798" x="486" y="172" width="77" height="15" filterUnits="userSpaceOnUse" color-interpolation-filters="sRGB">
<feFlood flood-opacity="0" result="BackgroundImageFix"/>
<feColorMatrix in="SourceAlpha" type="matrix" values="0 0 0 0 0 0 0 0 0 0 0 0 0 0 0 0 0 0 127 0" result="hardAlpha"/>
<feOffset dy="4"/>
<feGaussianBlur stdDeviation="1"/>
<feComposite in2="hardAlpha" operator="out"/>
<feColorMatrix type="matrix" values="0 0 0 0 0 0 0 0 0 0 0 0 0 0 0 0 0 0 0.15 0"/>
<feBlend mode="normal" in2="BackgroundImageFix" result="effect1_dropShadow_30_3798"/>
<feBlend mode="normal" in="SourceGraphic" in2="effect1_dropShadow_30_3798" result="shape"/>
</filter>
<filter id="filter4_d_30_3798" x="494.348" y="171" width="61.3914" height="42.7197" filterUnits="userSpaceOnUse" color-interpolation-filters="sRGB">
<feFlood flood-opacity="0" result="BackgroundImageFix"/>
<feColorMatrix in="SourceAlpha" type="matrix" values="0 0 0 0 0 0 0 0 0 0 0 0 0 0 0 0 0 0 127 0" result="hardAlpha"/>
<feOffset dy="1"/>
<feGaussianBlur stdDeviation="2"/>
<feComposite in2="hardAlpha" operator="out"/>
<feColorMatrix type="matrix" values="0 0 0 0 0 0 0 0 0 0 0 0 0 0 0 0 0 0 0.25 0"/>
<feBlend mode="normal" in2="BackgroundImageFix" result="effect1_dropShadow_30_3798"/>
<feBlend mode="normal" in="SourceGraphic" in2="effect1_dropShadow_30_3798" result="shape"/>
</filter>
<filter id="filter5_d_30_3798" x="463.5" y="164.5" width="122" height="17.0513" filterUnits="userSpaceOnUse" color-interpolation-filters="sRGB">
<feFlood flood-opacity="0" result="BackgroundImageFix"/>
<feColorMatrix in="SourceAlpha" type="matrix" values="0 0 0 0 0 0 0 0 0 0 0 0 0 0 0 0 0 0 127 0" result="hardAlpha"/>
<feOffset dy="2"/>
<feGaussianBlur stdDeviation="2"/>
<feComposite in2="hardAlpha" operator="out"/>
<feColorMatrix type="matrix" values="0 0 0 0 0 0 0 0 0 0 0 0 0 0 0 0 0 0 0.25 0"/>
<feBlend mode="normal" in2="BackgroundImageFix" result="effect1_dropShadow_30_3798"/>
<feBlend mode="normal" in="SourceGraphic" in2="effect1_dropShadow_30_3798" result="shape"/>
</filter>
<radialGradient id="paint0_radial_30_3798" cx="0" cy="0" r="1" gradientUnits="userSpaceOnUse" gradientTransform="translate(-19.4361 -444.981) scale(1225.29 4223.36)">
<stop offset="0.148406"/>
<stop offset="0.319174" stop-color="#5A5A5A"/>
<stop offset="0.467843"/>
<stop offset="0.614502"/>
<stop offset="0.698786"/>
</radialGradient>
<radialGradient id="paint1_radial_30_3798" cx="0" cy="0" r="1" gradientUnits="userSpaceOnUse" gradientTransform="translate(-19.4361 -444.981) scale(1225.29 4223.36)">
<stop offset="0.148406"/>
<stop offset="0.319174" stop-color="#0C0C0C" stop-opacity="0.49"/>
<stop offset="0.467843"/>
<stop offset="0.614502"/>
<stop offset="0.698786"/>
</radialGradient>
<radialGradient id="paint2_radial_30_3798" cx="0" cy="0" r="1" gradientUnits="userSpaceOnUse" gradientTransform="translate(765.922 -512.456) rotate(59.829) scale(768.853 1015.93)">
<stop stop-color="#2C2C2C"/>
<stop offset="1" stop-color="#0D0B0B"/>
</radialGradient>
<linearGradient id="paint3_linear_30_3798" x1="518.744" y1="-304.562" x2="518.619" y2="74.4609" gradientUnits="userSpaceOnUse">
<stop stop-color="white"/>
<stop offset="1"/>
</linearGradient>
<radialGradient id="paint4_radial_30_3798" cx="0" cy="0" r="1" gradientUnits="userSpaceOnUse" gradientTransform="translate(765.922 -486.89) rotate(62.8249) scale(661.104 888.171)">
<stop stop-color="#2C2C2C"/>
<stop offset="0.427083"/>
<stop offset="0.890625"/>
<stop offset="1" stop-color="#2D2D2D"/>
</radialGradient>
<radialGradient id="paint5_radial_30_3798" cx="0" cy="0" r="1" gradientUnits="userSpaceOnUse" gradientTransform="translate(155.806 -247.875) rotate(-20.0022) scale(705.683 1174.33)">
<stop stop-color="#D05327"/>
<stop offset="0.46875" stop-color="#D7582B"/>
<stop offset="0.677083" stop-color="#C46442"/>
<stop offset="0.880208" stop-color="#D7582B"/>
</radialGradient>
<radialGradient id="paint6_radial_30_3798" cx="0" cy="0" r="1" gradientUnits="userSpaceOnUse" gradientTransform="translate(435.685 -237.252) rotate(42.4287) scale(531.416 1144.22)">
<stop stop-color="#1A1A1A"/>
<stop offset="0.0887577" stop-color="#1A1A1A"/>
<stop offset="0.996024"/>
</radialGradient>
</defs>
</svg>
