<svg width="673" height="361" viewBox="0 0 673 361" fill="none" xmlns="http://www.w3.org/2000/svg">
<path d="M189.177 54.8465C189.177 52.3877 189.624 49.9442 190.917 47.853C197.894 36.5714 229.031 0 339.549 0C450.068 0 481.205 36.5714 488.181 47.853C489.475 49.9442 489.922 52.3877 489.922 54.8465V199.707C489.922 210.752 480.968 219.707 469.922 219.707H209.176C198.131 219.707 189.177 210.752 189.177 199.707V54.8465Z" fill="url(#paint0_radial_5_1480)"/>
<path d="M189.177 54.8465C189.177 52.3877 189.624 49.9442 190.917 47.853C197.894 36.5714 229.031 0 339.549 0C450.068 0 481.205 36.5714 488.181 47.853C489.475 49.9442 489.922 52.3877 489.922 54.8465V199.707C489.922 210.752 480.968 219.707 469.922 219.707H209.176C198.131 219.707 189.177 210.752 189.177 199.707V54.8465Z" fill="url(#paint1_radial_5_1480)"/>
<path d="M154.96 93.9113C154.96 77.3913 163.292 62.0558 178.644 55.9536C205.868 45.1317 257.652 30.6149 339.549 30.6149C421.447 30.6149 473.23 45.1317 500.455 55.9536C515.807 62.0558 524.139 77.3913 524.139 93.9113V118.382C524.139 145.996 501.753 168.382 474.139 168.382H204.96C177.346 168.382 154.96 145.996 154.96 118.382V93.9113Z" fill="url(#paint2_radial_5_1480)"/>
<ellipse cx="339.55" cy="182.849" rx="324.55" ry="130.624" fill="url(#paint3_radial_5_1480)"/>
<g filter="url(#filter0_f_5_1480)">
<ellipse cx="339.55" cy="184.859" rx="324.55" ry="132.633" fill="url(#paint4_linear_5_1480)" fill-opacity="0.25"/>
</g>
<ellipse cx="339.55" cy="187.873" rx="324.55" ry="125.6" fill="url(#paint5_radial_5_1480)"/>
<g filter="url(#filter1_i_5_1480)">
<path d="M145.345 234.735C144.688 229.805 148.151 225.276 153.08 224.619L178.786 221.189C183.716 220.532 188.245 223.995 188.902 228.924L193.542 263.705C194.2 268.634 190.737 273.163 185.807 273.821L160.101 277.25C155.172 277.907 150.643 274.444 149.985 269.515L145.345 234.735Z" fill="#E8CCB5"/>
<path d="M535.708 234.735C536.365 229.805 532.902 225.276 527.973 224.619L502.267 221.189C497.338 220.532 492.809 223.995 492.151 228.924L487.511 263.705C486.854 268.634 490.317 273.163 495.246 273.821L520.952 277.25C525.881 277.907 530.411 274.444 531.068 269.515L535.708 234.735Z" fill="#E8CCB5"/>
<path d="M160.289 160.879C160.289 155.906 164.32 151.875 169.293 151.875H513.812C518.785 151.875 522.816 155.906 522.816 160.879V324.585C522.816 344.477 506.691 360.603 486.799 360.603H196.306C176.415 360.603 160.289 344.477 160.289 324.585V160.879Z" fill="#E8CCB5"/>
</g>
<path fill-rule="evenodd" clip-rule="evenodd" d="M343.356 208.609C361.954 207.986 374.493 207.566 410.573 188.546C455.284 164.975 490.58 174.835 502.961 182.835C507.088 185.501 527.729 199.845 520.893 249.433C513.955 284.867 491.456 298.169 460.699 305.465C438.113 306.636 422.68 302.702 404.102 289.691C392.808 281.781 386.087 273.828 380.158 266.812C370.533 255.423 362.998 246.507 341.377 244.263C319.789 246.814 312.381 255.836 302.919 267.361C297.091 274.46 290.483 282.508 279.302 290.578C260.911 303.851 245.536 308.004 222.936 307.154C192.078 300.296 169.392 287.314 161.952 251.982C154.412 202.497 174.848 187.861 178.936 185.136C191.202 176.961 226.354 166.602 271.396 189.535C307.742 208.04 320.286 208.282 338.891 208.641C339.625 208.655 340.369 208.669 341.124 208.685C341.878 208.658 342.622 208.633 343.356 208.609Z" fill="black"/>
<g filter="url(#filter2_i_5_1480)">
<path d="M164.318 136.488C161.974 136.941 160.289 138.996 160.289 141.384L160.289 219.62C165.345 219.62 169.444 213.779 169.444 206.574L169.444 150.902C172.137 153.122 175.264 154.392 178.599 154.392H303.099C311.451 170.235 324.746 180.483 339.722 180.483H504.507C510.633 180.483 510.969 175.104 513.662 172.884V206.574C513.662 213.779 517.76 219.62 522.816 219.62V137.54C522.816 135.109 521.069 133.029 518.673 132.623C465.974 123.699 410.172 118.858 352.156 118.858C286.252 118.858 223.204 125.105 164.318 136.488Z" fill="url(#paint6_radial_5_1480)"/>
</g>
<path fill-rule="evenodd" clip-rule="evenodd" d="M406.967 190.425C373.632 207.595 361.321 208.007 343.356 208.609C342.622 208.633 341.878 208.658 341.123 208.685C340.369 208.669 339.626 208.655 338.892 208.641L338.891 208.64C320.286 208.282 307.742 208.04 271.396 189.534C226.354 166.602 191.202 176.961 178.936 185.136C174.848 187.861 154.412 202.497 161.952 251.982C169.392 287.314 192.078 300.296 222.936 307.154C245.536 308.004 260.911 303.851 279.302 290.578C290.483 282.508 297.091 274.46 302.919 267.361C312.381 255.836 319.789 246.814 341.377 244.263C362.998 246.507 370.533 255.423 380.158 266.812C386.087 273.828 392.808 281.781 404.102 289.691C422.68 302.702 438.113 306.636 460.699 305.465C491.456 298.169 513.955 284.867 520.893 249.433C525.553 215.628 517.444 198.203 510.502 189.69L406.967 190.425Z" fill="url(#paint7_radial_5_1480)"/>
<ellipse cx="244.498" cy="240.338" rx="40.5196" ry="38.7188" fill="#F5F3EC"/>
<ellipse cx="439.164" cy="240.338" rx="40.5196" ry="38.7188" fill="#F5F3EC"/>
<defs>
<filter id="filter0_f_5_1480" x="0" y="37.2253" width="679.099" height="295.266" filterUnits="userSpaceOnUse" color-interpolation-filters="sRGB">
<feFlood flood-opacity="0" result="BackgroundImageFix"/>
<feBlend mode="normal" in="SourceGraphic" in2="BackgroundImageFix" result="shape"/>
<feGaussianBlur stdDeviation="7.5" result="effect1_foregroundBlur_5_1480"/>
</filter>
<filter id="filter1_i_5_1480" x="145.265" y="150.875" width="390.523" height="209.728" filterUnits="userSpaceOnUse" color-interpolation-filters="sRGB">
<feFlood flood-opacity="0" result="BackgroundImageFix"/>
<feBlend mode="normal" in="SourceGraphic" in2="BackgroundImageFix" result="shape"/>
<feColorMatrix in="SourceAlpha" type="matrix" values="0 0 0 0 0 0 0 0 0 0 0 0 0 0 0 0 0 0 127 0" result="hardAlpha"/>
<feOffset dy="-1"/>
<feGaussianBlur stdDeviation="2"/>
<feComposite in2="hardAlpha" operator="arithmetic" k2="-1" k3="1"/>
<feColorMatrix type="matrix" values="0 0 0 0 0 0 0 0 0 0 0 0 0 0 0 0 0 0 0.1 0"/>
<feBlend mode="normal" in2="shape" result="effect1_innerShadow_5_1480"/>
</filter>
<filter id="filter2_i_5_1480" x="160.289" y="118.858" width="362.527" height="101.762" filterUnits="userSpaceOnUse" color-interpolation-filters="sRGB">
<feFlood flood-opacity="0" result="BackgroundImageFix"/>
<feBlend mode="normal" in="SourceGraphic" in2="BackgroundImageFix" result="shape"/>
<feColorMatrix in="SourceAlpha" type="matrix" values="0 0 0 0 0 0 0 0 0 0 0 0 0 0 0 0 0 0 127 0" result="hardAlpha"/>
<feOffset dy="1"/>
<feGaussianBlur stdDeviation="2.5"/>
<feComposite in2="hardAlpha" operator="arithmetic" k2="-1" k3="1"/>
<feColorMatrix type="matrix" values="0 0 0 0 0 0 0 0 0 0 0 0 0 0 0 0 0 0 0.3 0"/>
<feBlend mode="normal" in2="shape" result="effect1_innerShadow_5_1480"/>
</filter>
<radialGradient id="paint0_radial_5_1480" cx="0" cy="0" r="1" gradientUnits="userSpaceOnUse" gradientTransform="translate(-7.11864 -63.0307) scale(786.981 2662.51)">
<stop offset="0.148406"/>
<stop offset="0.319174" stop-color="#5A5A5A"/>
<stop offset="0.467843"/>
<stop offset="0.614502"/>
<stop offset="0.698786"/>
</radialGradient>
<radialGradient id="paint1_radial_5_1480" cx="0" cy="0" r="1" gradientUnits="userSpaceOnUse" gradientTransform="translate(-7.11864 -63.0307) scale(786.981 2662.51)">
<stop offset="0.148406"/>
<stop offset="0.319174" stop-color="#0C0C0C" stop-opacity="0.49"/>
<stop offset="0.467843"/>
<stop offset="0.614502"/>
<stop offset="0.698786"/>
</radialGradient>
<radialGradient id="paint2_radial_5_1480" cx="0" cy="0" r="1" gradientUnits="userSpaceOnUse" gradientTransform="translate(332.295 -116.043) rotate(44.0908) scale(363.62 1048.59)">
<stop stop-color="white"/>
<stop offset="0.318099" stop-color="#FC9D2C"/>
<stop offset="0.757558" stop-color="#FC9D2C"/>
<stop offset="0.946263" stop-color="white"/>
</radialGradient>
<radialGradient id="paint3_radial_5_1480" cx="0" cy="0" r="1" gradientUnits="userSpaceOnUse" gradientTransform="translate(497.303 -105.568) rotate(59.363) scale(487.022 649.404)">
<stop stop-color="#2C2C2C"/>
<stop offset="1" stop-color="#0D0B0B"/>
</radialGradient>
<linearGradient id="paint4_linear_5_1480" x1="338.545" y1="25.493" x2="338.468" y2="264.438" gradientUnits="userSpaceOnUse">
<stop stop-color="white"/>
<stop offset="1"/>
</linearGradient>
<radialGradient id="paint5_radial_5_1480" cx="0" cy="0" r="1" gradientUnits="userSpaceOnUse" gradientTransform="translate(497.303 -89.4511) rotate(62.3888) scale(418.423 568.209)">
<stop stop-color="#2C2C2C"/>
<stop offset="0.427083"/>
<stop offset="0.890625"/>
<stop offset="1" stop-color="#2D2D2D"/>
</radialGradient>
<radialGradient id="paint6_radial_5_1480" cx="0" cy="0" r="1" gradientUnits="userSpaceOnUse" gradientTransform="translate(105.436 61.2297) rotate(-19.6615) scale(452.276 741.913)">
<stop stop-color="#D05327"/>
<stop offset="0.46875" stop-color="#D7582B"/>
<stop offset="0.677083" stop-color="#C46442"/>
<stop offset="0.880208" stop-color="#D7582B"/>
</radialGradient>
<radialGradient id="paint7_radial_5_1480" cx="0" cy="0" r="1" gradientUnits="userSpaceOnUse" gradientTransform="translate(285.196 67.9273) rotate(41.8975) scale(338.465 727.423)">
<stop stop-color="#1A1A1A"/>
<stop offset="0.0887577" stop-color="#1A1A1A"/>
<stop offset="0.996024"/>
</radialGradient>
</defs>
</svg>
